<svg width="26" height="26" viewBox="0 0 26 26" fill="none" xmlns="http://www.w3.org/2000/svg">
<path d="M0.5 13C0.5 6.09644 6.09644 0.5 13 0.5C19.9036 0.5 25.5 6.09644 25.5 13C25.5 19.9036 19.9036 25.5 13 25.5C6.09644 25.5 0.5 19.9036 0.5 13Z" fill="white" stroke="#0E003F"/>
<mask id="path-2-inside-1_2024_393" fill="white">
<path fill-rule="evenodd" clip-rule="evenodd" d="M10.0008 12.9975L15.3009 17.9989L16.0005 17.3377L11.401 12.9975L16.0005 8.65809L15.3009 7.99809L10.0008 12.9975Z"/>
</mask>
<path fill-rule="evenodd" clip-rule="evenodd" d="M10.0008 12.9975L15.3009 17.9989L16.0005 17.3377L11.401 12.9975L16.0005 8.65809L15.3009 7.99809L10.0008 12.9975Z" fill="white"/>
<path d="M10.0008 12.9975L9.31464 12.27L8.5436 12.9973L9.31449 13.7248L10.0008 12.9975ZM15.3009 17.9989L14.6146 18.7262L15.3014 19.3743L15.9878 18.7257L15.3009 17.9989ZM16.0005 17.3377L16.6874 18.0645L17.4569 17.3372L16.6868 16.6104L16.0005 17.3377ZM11.401 12.9975L10.7148 12.2701L9.94388 12.9974L10.7147 13.7248L11.401 12.9975ZM16.0005 8.65809L16.6867 9.38547L17.4577 8.65809L16.6867 7.93072L16.0005 8.65809ZM15.3009 7.99809L15.9872 7.27071L15.301 6.62335L14.6147 7.27065L15.3009 7.99809ZM9.31449 13.7248L14.6146 18.7262L15.9872 17.2716L10.6871 12.2702L9.31449 13.7248ZM15.9878 18.7257L16.6874 18.0645L15.3136 16.611L14.614 17.2721L15.9878 18.7257ZM16.6868 16.6104L12.0873 12.2702L10.7147 13.7248L15.3142 18.065L16.6868 16.6104ZM12.0873 13.7248L16.6867 9.38547L15.3142 7.93072L10.7148 12.2701L12.0873 13.7248ZM16.6867 7.93072L15.9872 7.27071L14.6147 8.72547L15.3143 9.38547L16.6867 7.93072ZM14.6147 7.27065L9.31464 12.27L10.687 13.7249L15.9871 8.72553L14.6147 7.27065Z" fill="#0E003F" mask="url(#path-2-inside-1_2024_393)"/>
</svg>
