<svg width="19" height="20" viewBox="0 0 19 20" fill="none" xmlns="http://www.w3.org/2000/svg">
<path d="M1.83408 18.2087C-0.643974 15.8536 -0.597788 12.0559 1.89287 9.70942L10.7889 1.32814C12.6684 -0.442636 15.7235 -0.442792 17.6031 1.32814C19.4645 3.08181 19.4668 5.9113 17.6031 7.66704L9.84835 14.9659C8.58218 16.1588 6.51347 16.1421 5.26876 14.927C4.06959 13.7563 4.10806 11.9007 5.33034 10.7491L11.4266 5.01337C11.6888 4.76673 12.1184 4.76251 12.3862 5.00396L13.3557 5.87814C13.6235 6.11962 13.6281 6.51532 13.3659 6.76196L7.27033 12.4971C7.06116 12.6942 7.04827 13.0217 7.24285 13.2117C7.42827 13.3927 7.71976 13.3957 7.90819 13.2181L15.6629 5.91927C16.4947 5.1356 16.4947 3.8597 15.6625 3.0756C14.8487 2.30892 13.5438 2.30853 12.7296 3.0756L3.83349 11.4568C2.35917 12.8459 2.33644 15.0943 3.78298 16.4691C5.22537 17.8399 7.5569 17.8416 9.00196 16.4802L16.2991 9.60528C16.5611 9.35844 16.9907 9.35399 17.2587 9.59528L18.229 10.4689C18.497 10.7102 18.5018 11.1059 18.2398 11.3527L10.9426 18.2276C8.41597 20.608 4.32898 20.5798 1.83408 18.2087Z" fill="#181A1C"/>
</svg>
