<svg width="25" height="29" viewBox="0 0 25 29" fill="none" xmlns="http://www.w3.org/2000/svg">
<path d="M0 26.2812C0 27.7822 1.19978 29 2.67857 29H22.3214C23.8002 29 25 27.7822 25 26.2812V10.875H0V26.2812ZM17.8571 15.1797C17.8571 14.8059 18.1585 14.5 18.5268 14.5H20.7589C21.1272 14.5 21.4286 14.8059 21.4286 15.1797V17.4453C21.4286 17.8191 21.1272 18.125 20.7589 18.125H18.5268C18.1585 18.125 17.8571 17.8191 17.8571 17.4453V15.1797ZM17.8571 22.4297C17.8571 22.0559 18.1585 21.75 18.5268 21.75H20.7589C21.1272 21.75 21.4286 22.0559 21.4286 22.4297V24.6953C21.4286 25.0691 21.1272 25.375 20.7589 25.375H18.5268C18.1585 25.375 17.8571 25.0691 17.8571 24.6953V22.4297ZM10.7143 15.1797C10.7143 14.8059 11.0156 14.5 11.3839 14.5H13.6161C13.9844 14.5 14.2857 14.8059 14.2857 15.1797V17.4453C14.2857 17.8191 13.9844 18.125 13.6161 18.125H11.3839C11.0156 18.125 10.7143 17.8191 10.7143 17.4453V15.1797ZM10.7143 22.4297C10.7143 22.0559 11.0156 21.75 11.3839 21.75H13.6161C13.9844 21.75 14.2857 22.0559 14.2857 22.4297V24.6953C14.2857 25.0691 13.9844 25.375 13.6161 25.375H11.3839C11.0156 25.375 10.7143 25.0691 10.7143 24.6953V22.4297ZM3.57143 15.1797C3.57143 14.8059 3.87277 14.5 4.24107 14.5H6.47321C6.84152 14.5 7.14286 14.8059 7.14286 15.1797V17.4453C7.14286 17.8191 6.84152 18.125 6.47321 18.125H4.24107C3.87277 18.125 3.57143 17.8191 3.57143 17.4453V15.1797ZM3.57143 22.4297C3.57143 22.0559 3.87277 21.75 4.24107 21.75H6.47321C6.84152 21.75 7.14286 22.0559 7.14286 22.4297V24.6953C7.14286 25.0691 6.84152 25.375 6.47321 25.375H4.24107C3.87277 25.375 3.57143 25.0691 3.57143 24.6953V22.4297ZM22.3214 3.625H19.6429V0.90625C19.6429 0.407812 19.2411 0 18.75 0H16.9643C16.4732 0 16.0714 0.407812 16.0714 0.90625V3.625H8.92857V0.90625C8.92857 0.407812 8.52679 0 8.03571 0H6.25C5.75893 0 5.35714 0.407812 5.35714 0.90625V3.625H2.67857C1.19978 3.625 0 4.84277 0 6.34375V9.0625H25V6.34375C25 4.84277 23.8002 3.625 22.3214 3.625Z" fill="#2E2F5B"/>
</svg>
