<svg width="24" height="24" viewBox="0 0 24 24" fill="none" xmlns="http://www.w3.org/2000/svg">
<path fill-rule="evenodd" clip-rule="evenodd" d="M14.6649 1.00001L14.5 1.00003H9.50003L9.33517 1.00001C7.63317 0.999797 6.59084 0.999664 5.70516 1.21796C2.99846 1.88511 0.885107 3.99846 0.217964 6.70516C-0.000333846 7.59084 -0.000202233 8.63318 1.32977e-05 10.3352L2.85565e-05 10.5L1.32977e-05 10.6649C-0.000202233 12.3669 -0.000333846 13.4092 0.217964 14.2949C0.885107 17.0016 2.99846 19.1149 5.70516 19.7821C6.59084 20.0004 7.63318 20.0003 9.33518 20L9.50003 20H12.3334L17.0001 23.5C17.8241 24.118 19.0001 23.5301 19.0001 22.5V19.5712C21.3649 18.7356 23.1741 16.7617 23.7821 14.2949C24.0004 13.4092 24.0003 12.3669 24 10.6649L24 10.5L24 10.3352C24.0003 8.63317 24.0004 7.59084 23.7821 6.70516C23.115 3.99846 21.0016 1.88511 18.2949 1.21796C17.4092 0.999664 16.3669 0.999797 14.6649 1.00001ZM14.5 3.00003C16.4188 3.00003 17.1976 3.00735 17.8163 3.15985C19.8012 3.64909 21.351 5.19888 21.8402 7.18379C21.9927 7.80249 22 8.58125 22 10.5C22 12.4188 21.9927 13.1976 21.8402 13.8163C21.351 15.8012 19.8012 17.351 17.8163 17.8402C17.1976 17.9927 16.4188 18 14.5 18H9.50003C7.58125 18 6.80249 17.9927 6.18379 17.8402C4.19888 17.351 2.64909 15.8012 2.15985 13.8163C2.00735 13.1976 2.00003 12.4188 2.00003 10.5C2.00003 8.58125 2.00735 7.80249 2.15985 7.18379C2.64909 5.19888 4.19888 3.64909 6.18379 3.15985C6.80249 3.00735 7.58125 3.00003 9.50003 3.00003H14.5ZM9.39693 9.55749C9.15241 9.06228 8.55275 8.85905 8.05754 9.10357C7.56234 9.34809 7.35911 9.94775 7.60363 10.443C8.0161 11.2783 8.65376 11.9818 9.4447 12.4741C10.2356 12.9665 11.1484 13.228 12.08 13.2293C13.0117 13.2305 13.9252 12.9715 14.7174 12.4814C15.5097 11.9912 16.1493 11.2894 16.5641 10.4552C16.8099 9.96068 16.6084 9.36046 16.1138 9.11459C15.6193 8.86872 15.0191 9.0703 14.7732 9.56484C14.5243 10.0654 14.1406 10.4864 13.6652 10.7805C13.1899 11.0746 12.6418 11.23 12.0828 11.2293C11.5238 11.2285 10.9761 11.0716 10.5016 10.7762C10.027 10.4808 9.64441 10.0587 9.39693 9.55749Z" fill="#181A1C"/>
</svg>
