<svg width="17" height="20" viewBox="0 0 17 20" fill="none" xmlns="http://www.w3.org/2000/svg">
<path opacity="0.2" d="M3.5873 1.05078H10.4394C10.6526 1.05069 10.8635 1.09493 11.0586 1.18068C11.2538 1.26644 11.429 1.39185 11.5731 1.54893L15.9949 6.36848C16.2552 6.65204 16.3997 7.02291 16.3998 7.40783V17.9633C16.3998 18.3711 16.2378 18.7621 15.9495 19.0505C15.6611 19.3388 15.2701 19.5008 14.8623 19.5008H3.5873C3.17953 19.5008 2.78846 19.3388 2.50013 19.0505C2.21179 18.7621 2.0498 18.3711 2.0498 17.9633V2.58828C2.0498 2.18051 2.21179 1.78944 2.50013 1.5011C2.78846 1.21277 3.17953 1.05078 3.5873 1.05078Z" fill="black"/>
<path d="M3.5877 11.3004C3.45177 11.3004 3.32142 11.2464 3.2253 11.1503C3.12919 11.0542 3.0752 10.9238 3.0752 10.7879C3.0752 10.652 3.12919 10.5216 3.2253 10.4255C3.32142 10.3294 3.45177 10.2754 3.5877 10.2754H10.7627C10.8986 10.2754 11.029 10.3294 11.1251 10.4255C11.2212 10.5216 11.2752 10.652 11.2752 10.7879C11.2752 10.9238 11.2212 11.0542 11.1251 11.1503C11.029 11.2464 10.8986 11.3004 10.7627 11.3004H3.5877ZM3.5877 14.3754C3.45177 14.3754 3.32142 14.3214 3.2253 14.2253C3.12919 14.1292 3.0752 13.9988 3.0752 13.8629C3.0752 13.727 3.12919 13.5966 3.2253 13.5005C3.32142 13.4044 3.45177 13.3504 3.5877 13.3504H10.7627C10.8986 13.3504 11.029 13.4044 11.1251 13.5005C11.2212 13.5966 11.2752 13.727 11.2752 13.8629C11.2752 13.9988 11.2212 14.1292 11.1251 14.2253C11.029 14.3214 10.8986 14.3754 10.7627 14.3754H3.5877Z" fill="black"/>
<path fill-rule="evenodd" clip-rule="evenodd" d="M8.38963 0.0253908H1.5375C1.12973 0.0253908 0.738661 0.187377 0.450323 0.475714C0.161986 0.764051 0 1.15512 0 1.56289V16.9379C0 17.3457 0.161986 17.7367 0.450323 18.0251C0.738661 18.3134 1.12973 18.4754 1.5375 18.4754H12.8125C13.2203 18.4754 13.6113 18.3134 13.8997 18.0251C14.188 17.7367 14.35 17.3457 14.35 16.9379V6.38244C14.3499 5.99752 14.2054 5.62665 13.9451 5.34309L9.52328 0.523541C9.37917 0.366455 9.20398 0.241051 9.00882 0.155294C8.81366 0.0695361 8.6028 0.0252988 8.38963 0.0253908ZM1.025 1.56289C1.025 1.42697 1.079 1.29661 1.17511 1.2005C1.27122 1.10439 1.40158 1.05039 1.5375 1.05039H8.38963C8.46074 1.05031 8.53109 1.06504 8.59621 1.09362C8.66132 1.12221 8.71978 1.16404 8.76785 1.21644L13.1897 6.03599C13.2766 6.13046 13.3249 6.25409 13.325 6.38244V16.9379C13.325 17.0738 13.271 17.2042 13.1749 17.3003C13.0788 17.3964 12.9484 17.4504 12.8125 17.4504H1.5375C1.40158 17.4504 1.27122 17.3964 1.17511 17.3003C1.079 17.2042 1.025 17.0738 1.025 16.9379V1.56289Z" fill="black"/>
<path d="M8.1998 6.17539H13.8373C13.9732 6.17539 14.1036 6.22939 14.1997 6.3255C14.2958 6.42161 14.3498 6.55197 14.3498 6.68789C14.3498 6.82381 14.2958 6.95417 14.1997 7.05028C14.1036 7.1464 13.9732 7.20039 13.8373 7.20039H7.6873C7.55138 7.20039 7.42102 7.1464 7.32491 7.05028C7.2288 6.95417 7.1748 6.82381 7.1748 6.68789V0.537891C7.1748 0.401967 7.2288 0.271611 7.32491 0.175498C7.42102 0.079386 7.55138 0.0253906 7.6873 0.0253906C7.82323 0.0253906 7.95358 0.079386 8.0497 0.175498C8.14581 0.271611 8.1998 0.401967 8.1998 0.537891V6.17539Z" fill="black"/>
</svg>
