<svg width="24" height="24" viewBox="0 0 24 24" fill="none" xmlns="http://www.w3.org/2000/svg">
<path fill-rule="evenodd" clip-rule="evenodd" d="M7.08412 3.00014C7.45543 1.46469 9.0016 0.429059 10.6286 0.7777L18.6286 2.49198C20.0118 2.78839 21 4.01078 21 5.42539V6.00014V18.0001V18.5749C21 19.9895 20.0118 21.2119 18.6286 21.5083L10.6286 23.2226C9.0016 23.5712 7.45543 22.5356 7.08412 21.0001H6C4.34315 21.0001 3 19.657 3 18.0001V11.5001V11.0001V6.00014C3 4.34329 4.34315 3.00014 6 3.00014H7.08412ZM7 5.00014H6C5.44772 5.00014 5 5.44786 5 6.00014V11.0001V11.5001V18.0001C5 18.5524 5.44772 19.0001 6 19.0001H7V5.00014ZM11 12.0001C11 12.5524 10.5523 13.0001 10 13.0001C9.44772 13.0001 9 12.5524 9 12.0001C9 11.4479 9.44772 11.0001 10 11.0001C10.5523 11.0001 11 11.4479 11 12.0001Z" fill="white"/>
</svg>
