<svg width="24" height="24" viewBox="0 0 24 24" fill="none" xmlns="http://www.w3.org/2000/svg">
<path fill-rule="evenodd" clip-rule="evenodd" d="M8 13C8 14.1046 8.89543 15 10 15H14C15.1046 15 16 14.1046 16 13V5C16 2.79086 14.2091 1 12 1C9.79086 1 8 2.79086 8 5V13ZM5 9.5C5.55228 9.5 6 9.94771 6 10.5V14C6 15.6569 7.34315 17 9 17H12H15C16.6569 17 18 15.6569 18 14V10.5C18 9.94771 18.4477 9.5 19 9.5C19.5523 9.5 20 9.94771 20 10.5V14C20 16.7614 17.7614 19 15 19H13V22C13 22.5523 12.5523 23 12 23C11.4477 23 11 22.5523 11 22L11 19H9C6.23858 19 4 16.7614 4 14V10.5C4 9.94771 4.44772 9.5 5 9.5Z" fill="#181A1C"/>
</svg>
