<svg width="19" height="25" viewBox="0 0 19 25" fill="none" xmlns="http://www.w3.org/2000/svg">
<path d="M4.74228 17.7069C4.31797 17.2826 4.53916 17.4022 3.51572 17.1283C3.05137 17.0038 2.64316 16.7646 2.27402 16.4779L0.0586902 21.9096C-0.155665 22.4355 0.244725 23.0067 0.812108 22.9853L3.38486 22.8871L5.15439 24.7563C5.54502 25.1684 6.23057 25.0399 6.44492 24.5141L8.98642 18.2826C8.45713 18.5775 7.86972 18.7504 7.2623 18.7504C6.31015 18.7504 5.41562 18.3798 4.74228 17.7069ZM18.6915 21.9096L16.4762 16.4779C16.107 16.765 15.6988 17.0038 15.2345 17.1283C14.2057 17.4037 14.4312 17.2836 14.0079 17.7069C13.3346 18.3798 12.4395 18.7504 11.4874 18.7504C10.88 18.7504 10.2926 18.5771 9.76328 18.2826L12.3048 24.5141C12.5191 25.0399 13.2052 25.1684 13.5953 24.7563L15.3653 22.8871L17.9381 22.9853C18.5055 23.0067 18.9059 22.435 18.6915 21.9096ZM12.8419 16.602C13.588 15.8427 13.6734 15.9081 14.7359 15.6186C15.4142 15.4335 15.9444 14.8939 16.1261 14.2035C16.4913 12.8168 16.3966 12.9843 17.3932 11.9696C17.8897 11.4643 18.0836 10.7274 17.902 10.037C17.5372 8.65127 17.5367 8.84463 17.902 7.45742C18.0836 6.76699 17.8897 6.03018 17.3932 5.52481C16.3966 4.51016 16.4913 4.67715 16.1261 3.29092C15.9444 2.60049 15.4142 2.06094 14.7359 1.87588C13.3746 1.5043 13.5387 1.60147 12.5411 0.586331C12.0445 0.0809601 11.3204 -0.116794 10.6422 0.0682648C9.28135 0.439359 9.47129 0.439847 8.10801 0.0682648C7.42978 -0.116794 6.70566 0.0804719 6.20908 0.586331C5.2125 1.60098 5.37656 1.5043 4.01474 1.87588C3.33652 2.06094 2.80625 2.60049 2.62461 3.29092C2.25986 4.67715 2.3541 4.51016 1.35752 5.52481C0.860936 6.03018 0.6666 6.76699 0.848729 7.45742C1.21348 8.84219 1.21396 8.64883 0.848729 10.0365C0.667089 10.727 0.860936 11.4638 1.35752 11.9696C2.3541 12.9843 2.25937 12.8168 2.62461 14.2035C2.80625 14.8939 3.33652 15.4335 4.01474 15.6186C5.10752 15.9164 5.18906 15.8695 5.9083 16.602C6.5543 17.2597 7.56064 17.3773 8.33701 16.8861C8.64747 16.689 9.00761 16.5844 9.37534 16.5844C9.74308 16.5844 10.1032 16.689 10.4137 16.8861C11.1895 17.3773 12.1959 17.2597 12.8419 16.602ZM4.76865 8.59219C4.76865 6.00284 6.83115 3.90371 9.3751 3.90371C11.919 3.90371 13.9815 6.00284 13.9815 8.59219C13.9815 11.1815 11.919 13.2807 9.3751 13.2807C6.83115 13.2807 4.76865 11.1815 4.76865 8.59219Z" fill="black"/>
</svg>
