<svg width="24" height="24" viewBox="0 0 24 24" fill="none" xmlns="http://www.w3.org/2000/svg">
<path fill-rule="evenodd" clip-rule="evenodd" d="M16.4422 2H7.55785H7.55783C6.61354 1.99999 5.84431 1.99998 5.21978 2.05101C4.5743 2.10374 3.99586 2.21593 3.45704 2.49047C2.61031 2.9219 1.9219 3.61031 1.49047 4.45704C1.21593 4.99586 1.10374 5.5743 1.05101 6.21978C0.999981 6.8443 0.999989 7.61354 1 8.55783V8.55785V11.4422V11.4422C0.999989 12.3865 0.999981 13.1557 1.05101 13.7802C1.10374 14.4257 1.21593 15.0041 1.49047 15.543C1.9219 16.3897 2.61031 17.0781 3.45704 17.5095C3.99586 17.7841 4.5743 17.8963 5.21978 17.949C5.84429 18 6.6135 18 7.55776 18H7.55788H9.2L6.90983 20.8627C6.54317 21.321 6.86949 22 7.45644 22H16.5436C17.1305 22 17.4568 21.321 17.0902 20.8627L14.8 18H16.4421H16.4422C17.3865 18 18.1557 18 18.7802 17.949C19.4257 17.8963 20.0041 17.7841 20.543 17.5095C21.3897 17.0781 22.0781 16.3897 22.5095 15.543C22.7841 15.0041 22.8963 14.4257 22.949 13.7802C23 13.1557 23 12.3865 23 11.4422V8.55783C23 7.61354 23 6.8443 22.949 6.21978C22.8963 5.5743 22.7841 4.99586 22.5095 4.45704C22.0781 3.61031 21.3897 2.9219 20.543 2.49047C20.0041 2.21593 19.4257 2.10374 18.7802 2.05101C18.1557 1.99998 17.3865 1.99999 16.4422 2H16.4422ZM4.36502 4.27248C4.5749 4.16555 4.86085 4.087 5.38264 4.04436C5.91611 4.00078 6.60341 4 7.6 4H16.4C17.3966 4 18.0839 4.00078 18.6174 4.04436C19.1392 4.087 19.4251 4.16555 19.635 4.27248C20.1054 4.51217 20.4878 4.89462 20.7275 5.36502C20.8345 5.5749 20.913 5.86085 20.9556 6.38264C20.9992 6.91611 21 7.60341 21 8.6V11.4C21 12.3966 20.9992 13.0839 20.9556 13.6174C20.913 14.1392 20.8345 14.4251 20.7275 14.635C20.4878 15.1054 20.1054 15.4878 19.635 15.7275C19.4251 15.8345 19.1392 15.913 18.6174 15.9556C18.0839 15.9992 17.3966 16 16.4 16H7.6C6.60341 16 5.91611 15.9992 5.38264 15.9556C4.86085 15.913 4.5749 15.8345 4.36502 15.7275C3.89462 15.4878 3.51217 15.1054 3.27248 14.635C3.16555 14.4251 3.087 14.1392 3.04436 13.6174C3.00078 13.0839 3 12.3966 3 11.4V8.6C3 7.60341 3.00078 6.91611 3.04436 6.38264C3.087 5.86085 3.16555 5.5749 3.27248 5.36502C3.51217 4.89462 3.89462 4.51217 4.36502 4.27248Z" fill="#181A1C"/>
</svg>
